<svg width="10" height="11" viewBox="0 0 10 11" fill="none" xmlns="http://www.w3.org/2000/svg">
<path fill-rule="evenodd" clip-rule="evenodd" d="M1.7803 6.57293C2.76311 6.57293 3.55997 7.39023 3.55997 8.3986C3.55997 9.40633 2.76311 10.2243 1.7803 10.2243C0.796855 10.2243 0 9.40633 0 8.3986C0 7.39023 0.796855 6.57293 1.7803 6.57293ZM1.7803 0C2.76311 0 3.55933 0.817942 3.55933 1.82567C3.55933 2.83404 2.76247 3.65134 1.77966 3.65134C0.796855 3.65134 0 2.83404 0 1.82567C0 0.817942 0.796855 0 1.7803 0ZM8.18837 0C9.17182 0 9.96867 0.817942 9.96867 1.82567C9.96867 2.83404 9.17182 3.65134 8.18837 3.65134C7.20556 3.65134 6.40871 2.83404 6.40871 1.82567C6.40871 0.817942 7.20556 0 8.18837 0Z" fill="#F3603C"/>
<path opacity="0.5" d="M8.18827 10.2971C9.1715 10.2971 9.96858 9.47972 9.96858 8.47143C9.96858 7.46313 9.1715 6.64575 8.18827 6.64575C7.20503 6.64575 6.40796 7.46313 6.40796 8.47143C6.40796 9.47972 7.20503 10.2971 8.18827 10.2971Z" fill="#F3603C"/>
</svg>
