<svg width="580" height="525" viewBox="0 0 580 525" fill="none" xmlns="http://www.w3.org/2000/svg">
<g id="Group">
<g id="Vector" filter="url(#filter0_d)">
<path d="M276 10H24C21.7909 10 20 11.7909 20 14V241C20 243.209 21.7909 245 24 245H276C278.209 245 280 243.209 280 241V14C280 11.7909 278.209 10 276 10Z" fill="black"/>
</g>
<path id="Vector_2" d="M276 10H24C21.7909 10 20 11.7909 20 14V241C20 243.209 21.7909 245 24 245H276C278.209 245 280 243.209 280 241V14C280 11.7909 278.209 10 276 10Z" fill="white"/>
<path id="Vector_3" fill-rule="evenodd" clip-rule="evenodd" d="M36.208 26.207H266.494V228.793H36.208V26.207Z" fill="#FAFAFA" stroke="#E5E9EA"/>
<path id="Vector_4" fill-rule="evenodd" clip-rule="evenodd" d="M36.208 127.5H266.494V128.5H36.208V127.5ZM36.208 146.493H266.494V147.493H36.208V146.493ZM36.208 165.485H266.494V166.485H36.208V165.485ZM36.208 184.477H266.494V185.477H36.208V184.477ZM36.208 51.53H266.494V52.53H36.208V51.53ZM36.208 32.538H266.494V33.538H36.208V32.538ZM36.208 70.523H266.494V71.523H36.208V70.523ZM36.208 89.515H266.494V90.515H36.208V89.515ZM36.208 108.508H266.494V109.508H36.208V108.508ZM36.208 203.47H266.494V204.47H36.208V203.47ZM36.208 222.462H266.494V223.462H36.208V222.462Z" fill="#E5E9EA"/>
<g id="anim-scale-up">
<path id="Vector_5" fill-rule="evenodd" clip-rule="evenodd" d="M43 118.307H74.0651V163.954C74.0651 165.28 73.5383 166.552 72.6006 167.49C71.6629 168.427 70.3911 168.954 69.0651 168.954H48C46.6739 168.954 45.4022 168.427 44.4645 167.49C43.5268 166.552 43 165.28 43 163.954V118.307Z" fill="#242D52"/>
<path id="Vector_6" fill-rule="evenodd" clip-rule="evenodd" d="M43 118.307H74.065V151.292C74.065 152.618 73.5382 153.89 72.6005 154.828C71.6628 155.765 70.3911 156.292 69.065 156.292H48C46.6739 156.292 45.4021 155.765 44.4645 154.828C43.5268 153.89 43 152.618 43 151.292V118.307ZM90.272 118.041H121.337V83.465C121.337 82.1389 120.81 80.8671 119.872 79.9295C118.935 78.9918 117.663 78.465 116.337 78.465H95.272C93.9459 78.465 92.6741 78.9918 91.7364 79.9295C90.7988 80.8671 90.272 82.1389 90.272 83.465V118.041Z" fill="#F3603C"/>
<path id="Vector_7" fill-rule="evenodd" clip-rule="evenodd" d="M90.272 118.041H121.337V170.031C121.337 171.357 120.81 172.629 119.873 173.567C118.935 174.504 117.663 175.031 116.337 175.031H95.272C93.9459 175.031 92.6741 174.504 91.7364 173.567C90.7988 172.629 90.272 171.357 90.272 170.031V118.041ZM182.792 118.307H213.857V47C213.857 46.3434 213.728 45.6932 213.476 45.0866C213.225 44.48 212.857 43.9288 212.393 43.4645C211.928 43.0002 211.377 42.6319 210.77 42.3806C210.164 42.1293 209.514 42 208.857 42H187.792C186.466 42 185.194 42.5268 184.256 43.4645C183.319 44.4021 182.792 45.6739 182.792 47V118.307Z" fill="#242D52"/>
<path id="Vector_8" fill-rule="evenodd" clip-rule="evenodd" d="M182.792 118.307H213.857V66.077C213.857 65.4204 213.728 64.7702 213.476 64.1636C213.225 63.557 212.857 63.0058 212.393 62.5415C211.928 62.0772 211.377 61.7089 210.77 61.4576C210.164 61.2063 209.514 61.077 208.857 61.077H187.792C186.466 61.077 185.194 61.6038 184.256 62.5415C183.319 63.4791 182.792 64.7509 182.792 66.077V118.307Z" fill="#F3603C"/>
<g id="Group_2">
<path id="Vector_9" fill-rule="evenodd" clip-rule="evenodd" d="M230.065 118.307H261.13V176.784C261.13 178.11 260.603 179.382 259.666 180.32C258.728 181.257 257.456 181.784 256.13 181.784H235.064C233.738 181.784 232.466 181.257 231.528 180.32C230.591 179.382 230.064 178.11 230.064 176.784V118.307H230.065Z" fill="#242D52"/>
<path id="Vector_10" fill-rule="evenodd" clip-rule="evenodd" d="M230.065 118.307H261.13V164.089C261.13 165.415 260.603 166.687 259.666 167.625C258.728 168.562 257.456 169.089 256.13 169.089H235.064C233.738 169.089 232.466 168.562 231.528 167.625C230.591 166.687 230.064 165.415 230.064 164.089V118.307H230.065Z" fill="#F3603C"/>
</g>
<g id="Group_3">
<path id="Vector_11" fill-rule="evenodd" clip-rule="evenodd" d="M136.195 118.307H167.26V208.523C167.26 209.849 166.733 211.121 165.796 212.059C164.858 212.996 163.586 213.523 162.26 213.523H141.194C139.868 213.523 138.596 212.996 137.658 212.059C136.721 211.121 136.194 209.849 136.194 208.523V118.307H136.195Z" fill="#F3603C"/>
<path id="Vector_12" fill-rule="evenodd" clip-rule="evenodd" d="M136.195 118.307H167.26V151.393C167.26 152.719 166.733 153.991 165.796 154.929C164.858 155.866 163.586 156.393 162.26 156.393H141.194C139.868 156.393 138.596 155.866 137.658 154.929C136.721 153.991 136.194 152.719 136.194 151.393V118.307H136.195Z" fill="#242D52"/>
</g>
</g>
<g id="Group_4">
<g id="Vector_13" filter="url(#filter1_d)">
<path d="M556 10H304C301.791 10 300 11.7909 300 14V241C300 243.209 301.791 245 304 245H556C558.209 245 560 243.209 560 241V14C560 11.7909 558.209 10 556 10Z" fill="black"/>
</g>
<path id="Vector_14" d="M556 10H304C301.791 10 300 11.7909 300 14V241C300 243.209 301.791 245 304 245H556C558.209 245 560 243.209 560 241V14C560 11.7909 558.209 10 556 10Z" fill="white"/>
<g id="Group_5">
<path id="Vector_15" d="M430.338 188.534C464.049 188.534 491.377 161.208 491.377 127.5C491.377 93.7919 464.049 66.466 430.338 66.466C396.627 66.466 369.299 93.7919 369.299 127.5C369.299 161.208 396.627 188.534 430.338 188.534Z" stroke="white" stroke-width="40"/>
<path id="Vector_16" d="M430.338 208.534C475.095 208.534 511.377 172.254 511.377 127.5C511.377 82.7462 475.095 46.466 430.338 46.466C385.581 46.466 349.299 82.7462 349.299 127.5C349.299 172.254 385.581 208.534 430.338 208.534Z" stroke="#F3603C" stroke-width="80" stroke-dasharray="502 502"/>
<path id="Vector_17" d="M430.338 208.534C475.095 208.534 511.377 172.254 511.377 127.5C511.377 82.7462 475.095 46.466 430.338 46.466C385.581 46.466 349.299 82.7462 349.299 127.5C349.299 172.254 385.581 208.534 430.338 208.534Z" stroke="#242D52" stroke-width="80" stroke-dasharray="340 340"/>
</g>
</g>
<g id="Group_6">
<g id="Vector_18" filter="url(#filter2_d)">
<path d="M416 260H164C161.791 260 160 261.791 160 264V491C160 493.209 161.791 495 164 495H416C418.209 495 420 493.209 420 491V264C420 261.791 418.209 260 416 260Z" fill="black"/>
</g>
<path id="Vector_19" d="M416 260H164C161.791 260 160 261.791 160 264V491C160 493.209 161.791 495 164 495H416C418.209 495 420 493.209 420 491V264C420 261.791 418.209 260 416 260Z" fill="white"/>
<g id="Group_7">
<path id="Vector_20" d="M278.234 400.46H180.208C177.999 400.46 176.208 402.251 176.208 404.46V474.793C176.208 477.002 177.999 478.793 180.208 478.793H278.234C280.443 478.793 282.234 477.002 282.234 474.793V404.46C282.234 402.251 280.443 400.46 278.234 400.46Z" fill="#F3603C"/>
<path id="Vector_21" d="M199.252 459.873V455.966H203.149V454.186H199.252V450.278H197.471V454.185H193.563V455.965H197.471V459.873H199.251H199.252ZM211.516 461.911V447.805H209.358L205.925 450.802V453.176L209.239 450.199V461.91H211.515L211.516 461.911ZM217.953 462.109C218.335 462.109 218.663 461.974 218.937 461.703C219.211 461.433 219.347 461.106 219.347 460.723C219.347 460.341 219.211 460.013 218.937 459.74C218.81 459.608 218.657 459.504 218.487 459.433C218.318 459.363 218.136 459.328 217.953 459.33C217.577 459.33 217.251 459.466 216.973 459.74C216.84 459.867 216.734 460.019 216.663 460.189C216.591 460.358 216.556 460.54 216.558 460.724C216.558 461.1 216.697 461.424 216.974 461.698C217.251 461.972 217.577 462.108 217.953 462.108V462.109ZM226.537 462.099C227.987 462.099 229.16 461.655 230.054 460.769C230.947 459.881 231.394 458.716 231.394 457.272C231.394 455.834 230.956 454.728 230.078 453.952C229.201 453.178 227.879 452.791 226.112 452.791H224.568L224.875 449.873H230.751V447.815H222.888L222.156 454.729H225.786C227.996 454.729 229.1 455.603 229.1 457.351C229.1 458.142 228.868 458.781 228.403 459.265C227.938 459.75 227.3 459.992 226.488 459.992C225.783 459.992 225.181 459.787 224.683 459.379C224.185 458.969 223.936 458.356 223.936 457.539C223.936 457.374 223.959 457.136 224.006 456.827L221.72 456.965C221.687 457.249 221.67 457.486 221.67 457.677C221.67 458.594 221.898 459.393 222.353 460.076C222.788 460.741 223.402 461.269 224.124 461.599C224.85 461.932 225.654 462.099 226.538 462.099H226.537ZM235.744 453.809C236.151 453.816 236.556 453.739 236.932 453.582C237.308 453.426 237.648 453.193 237.93 452.899C238.53 452.286 238.83 451.551 238.83 450.694C238.83 449.843 238.53 449.114 237.93 448.507C237.648 448.213 237.308 447.98 236.932 447.824C236.556 447.667 236.151 447.59 235.744 447.597C234.894 447.597 234.164 447.901 233.558 448.507C233.265 448.79 233.033 449.13 232.876 449.506C232.72 449.882 232.642 450.287 232.648 450.694C232.648 451.557 232.95 452.293 233.553 452.899C234.156 453.506 234.887 453.809 235.744 453.809ZM236.832 461.921L244.292 447.785H242.312L234.874 461.921H236.832ZM235.744 452.237C235.322 452.237 234.959 452.087 234.656 451.787C234.509 451.646 234.393 451.476 234.314 451.288C234.236 451.1 234.198 450.898 234.201 450.694C234.201 450.264 234.353 449.904 234.656 449.61C234.799 449.468 234.969 449.356 235.156 449.28C235.342 449.204 235.542 449.167 235.744 449.17C236.173 449.17 236.536 449.319 236.832 449.615C237.129 449.912 237.277 450.271 237.277 450.694C237.277 451.122 237.131 451.487 236.837 451.787C236.544 452.087 236.179 452.237 235.744 452.237ZM243.529 462.079C244.38 462.079 245.104 461.776 245.701 461.169C245.99 460.884 246.218 460.543 246.372 460.168C246.526 459.792 246.602 459.389 246.596 458.983C246.596 458.126 246.296 457.395 245.696 456.792C245.416 456.501 245.079 456.27 244.707 456.114C244.334 455.958 243.933 455.881 243.529 455.887C242.672 455.887 241.94 456.188 241.333 456.792C241.039 457.075 240.807 457.416 240.65 457.793C240.494 458.17 240.416 458.575 240.423 458.983C240.423 459.84 240.725 460.571 241.328 461.174C241.932 461.777 242.666 462.079 243.529 462.079ZM243.529 460.516C243.094 460.516 242.729 460.366 242.431 460.066C242.287 459.925 242.174 459.756 242.097 459.57C242.021 459.384 241.983 459.184 241.986 458.983C241.986 458.548 242.135 458.182 242.431 457.885C242.574 457.74 242.745 457.625 242.934 457.549C243.123 457.472 243.325 457.435 243.529 457.44C243.945 457.44 244.306 457.591 244.613 457.895C244.919 458.198 245.073 458.561 245.073 458.983C245.073 459.405 244.921 459.766 244.618 460.066C244.314 460.366 243.952 460.516 243.529 460.516Z" fill="white"/>
</g>
<g id="Group_8">
<path id="Vector_22" d="M399.792 400.46H301.766C299.557 400.46 297.766 402.251 297.766 404.46V474.793C297.766 477.002 299.557 478.793 301.766 478.793H399.792C402.001 478.793 403.792 477.002 403.792 474.793V404.46C403.792 402.251 402.001 400.46 399.792 400.46Z" fill="#FAFAFA"/>
<path id="Vector_23" d="M319.87 462.099C320.806 462.099 321.647 461.931 322.392 461.594C323.114 461.271 323.73 460.75 324.168 460.091C324.607 459.431 324.826 458.67 324.826 457.806C324.826 456.956 324.608 456.213 324.173 455.58C323.731 454.941 323.117 454.441 322.403 454.136C322.93 453.826 323.345 453.422 323.649 452.924C323.954 452.422 324.111 451.844 324.104 451.257C324.104 450.189 323.704 449.314 322.902 448.631C322.101 447.949 321.09 447.607 319.87 447.607C318.63 447.607 317.608 447.947 316.803 448.627C315.999 449.305 315.596 450.182 315.596 451.257C315.596 451.871 315.751 452.427 316.061 452.924C316.371 453.422 316.797 453.826 317.337 454.136C316.579 454.459 315.984 454.937 315.552 455.57C315.12 456.203 314.904 456.949 314.904 457.806C314.904 458.67 315.124 459.431 315.562 460.091C316 460.75 316.618 461.27 317.342 461.589C318.091 461.929 318.933 462.099 319.87 462.099ZM319.87 453.434C319.263 453.434 318.752 453.237 318.337 452.845C318.135 452.66 317.975 452.434 317.868 452.183C317.76 451.931 317.707 451.66 317.713 451.386C317.713 450.819 317.921 450.342 318.337 449.956C318.752 449.571 319.263 449.378 319.87 449.378C320.47 449.378 320.978 449.571 321.393 449.957C321.809 450.342 322.017 450.819 322.017 451.386C322.017 451.96 321.807 452.444 321.388 452.84C320.981 453.231 320.435 453.445 319.87 453.434ZM319.87 460.041C319.098 460.041 318.459 459.814 317.95 459.359C317.443 458.904 317.189 458.297 317.189 457.539C317.189 456.794 317.443 456.197 317.951 455.749C318.459 455.299 319.098 455.076 319.87 455.076C320.628 455.076 321.261 455.3 321.77 455.748C322.277 456.197 322.531 456.794 322.531 457.538C322.531 458.291 322.277 458.896 321.769 459.354C321.261 459.812 320.629 460.041 319.869 460.041H319.87ZM330.946 462.1C331.882 462.1 332.723 461.932 333.468 461.595C334.19 461.272 334.806 460.751 335.244 460.092C335.683 459.432 335.902 458.671 335.902 457.807C335.902 456.957 335.684 456.214 335.249 455.581C334.807 454.942 334.193 454.442 333.479 454.137C334.006 453.827 334.421 453.423 334.725 452.925C335.03 452.423 335.187 451.845 335.18 451.258C335.18 450.19 334.78 449.315 333.978 448.632C333.177 447.95 332.166 447.608 330.946 447.608C329.706 447.608 328.684 447.948 327.879 448.628C327.075 449.306 326.672 450.183 326.672 451.258C326.672 451.872 326.827 452.428 327.137 452.925C327.447 453.423 327.873 453.827 328.413 454.137C327.655 454.46 327.06 454.938 326.628 455.571C326.196 456.204 325.98 456.95 325.98 457.807C325.98 458.671 326.2 459.432 326.638 460.092C327.076 460.751 327.694 461.271 328.418 461.59C329.167 461.93 330.009 462.1 330.946 462.1ZM330.946 453.435C330.339 453.435 329.828 453.238 329.412 452.846C329.21 452.661 329.051 452.435 328.943 452.184C328.836 451.932 328.783 451.66 328.789 451.387C328.789 450.82 328.997 450.343 329.412 449.957C329.828 449.572 330.339 449.379 330.946 449.379C331.546 449.379 332.054 449.572 332.469 449.958C332.885 450.343 333.092 450.82 333.092 451.387C333.092 451.961 332.883 452.445 332.464 452.841C332.057 453.232 331.511 453.446 330.946 453.435ZM330.946 460.042C330.174 460.042 329.534 459.815 329.026 459.36C328.519 458.905 328.265 458.298 328.265 457.54C328.265 456.795 328.519 456.198 329.027 455.75C329.534 455.3 330.174 455.077 330.946 455.077C331.704 455.077 332.337 455.301 332.846 455.749C333.353 456.198 333.606 456.795 333.606 457.539C333.606 458.292 333.353 458.897 332.846 459.355C332.337 459.813 331.704 460.042 330.946 460.042ZM339.381 462.11C339.764 462.11 340.092 461.975 340.366 461.704C340.639 461.434 340.776 461.107 340.776 460.724C340.776 460.342 340.639 460.014 340.366 459.741C340.239 459.609 340.085 459.504 339.916 459.434C339.747 459.363 339.564 459.328 339.381 459.331C339.006 459.331 338.679 459.467 338.402 459.741C338.269 459.868 338.163 460.02 338.092 460.19C338.02 460.359 337.985 460.541 337.987 460.725C337.987 461.101 338.125 461.425 338.402 461.699C338.679 461.973 339.006 462.109 339.382 462.109L339.381 462.11ZM352.694 461.912V459.854H346.184L350.33 455.561C350.996 454.869 351.484 454.219 351.794 453.613C352.104 453.006 352.259 452.343 352.259 451.624C352.259 450.371 351.84 449.386 351.002 448.667C350.165 447.947 349.087 447.588 347.768 447.588C346.363 447.588 345.248 447.981 344.424 448.766C343.6 449.55 343.187 450.675 343.187 452.139V452.93L345.453 453.148V452.109C345.453 451.192 345.66 450.525 346.076 450.106C346.491 449.687 347.059 449.478 347.777 449.478C348.463 449.478 349.007 449.668 349.41 450.047C349.812 450.426 350.013 450.955 350.013 451.634C350.013 452.511 349.542 453.434 348.599 454.404L342.959 460.191V461.912H352.694ZM362.396 461.912V459.152H364.335V457.104H362.395V447.806H358.926L353.495 457.095V459.152H360.123V461.912H362.398H362.396ZM360.121 457.104H355.709L360.121 449.27V457.104ZM368.25 453.81C368.657 453.817 369.062 453.74 369.438 453.583C369.814 453.427 370.154 453.194 370.436 452.9C371.036 452.287 371.336 451.552 371.336 450.695C371.336 449.844 371.036 449.115 370.436 448.508C370.154 448.214 369.814 447.981 369.438 447.825C369.062 447.668 368.657 447.591 368.25 447.598C367.399 447.598 366.67 447.902 366.063 448.508C365.77 448.791 365.538 449.131 365.382 449.507C365.225 449.883 365.147 450.288 365.153 450.695C365.153 451.558 365.455 452.294 366.058 452.9C366.662 453.507 367.392 453.81 368.25 453.81ZM369.338 461.922L376.797 447.786H374.818L367.379 461.922H369.338ZM368.25 452.238C367.828 452.238 367.465 452.088 367.161 451.788C367.014 451.647 366.898 451.477 366.82 451.289C366.741 451.101 366.703 450.899 366.706 450.695C366.706 450.265 366.858 449.905 367.161 449.611C367.304 449.469 367.474 449.356 367.661 449.281C367.848 449.205 368.048 449.168 368.25 449.171C368.678 449.171 369.041 449.32 369.338 449.616C369.635 449.913 369.783 450.272 369.783 450.695C369.783 451.123 369.636 451.488 369.343 451.788C369.049 452.088 368.685 452.238 368.25 452.238ZM376.035 462.08C376.885 462.08 377.609 461.777 378.206 461.17C378.495 460.885 378.724 460.544 378.878 460.169C379.032 459.793 379.108 459.39 379.102 458.984C379.102 458.127 378.802 457.396 378.202 456.793C377.922 456.502 377.585 456.271 377.213 456.115C376.84 455.959 376.439 455.882 376.035 455.888C375.178 455.888 374.445 456.189 373.839 456.793C373.545 457.076 373.313 457.417 373.156 457.794C373 458.171 372.922 458.576 372.929 458.984C372.929 459.841 373.23 460.572 373.834 461.175C374.437 461.778 375.171 462.08 376.034 462.08H376.035ZM376.035 460.517C375.6 460.517 375.234 460.367 374.937 460.067C374.793 459.926 374.68 459.757 374.603 459.571C374.527 459.385 374.489 459.185 374.492 458.984C374.492 458.549 374.64 458.183 374.937 457.886C375.08 457.741 375.251 457.626 375.44 457.55C375.629 457.473 375.831 457.436 376.035 457.441C376.45 457.441 376.811 457.592 377.118 457.896C377.425 458.199 377.578 458.562 377.578 458.984C377.578 459.406 377.426 459.767 377.123 460.067C376.82 460.367 376.457 460.517 376.035 460.517Z" fill="#1E272E"/>
</g>
<g id="Group_9">
<path id="Vector_24" d="M399.792 276.207H180.208C177.999 276.207 176.208 277.998 176.208 280.207V380.253C176.208 382.462 177.999 384.253 180.208 384.253H399.792C402.001 384.253 403.792 382.462 403.792 380.253V280.207C403.792 277.998 402.001 276.207 399.792 276.207Z" fill="#FAFAFA"/>
<path id="Vector_25" d="M204.994 361.019C206.992 361.019 208.785 360.66 210.375 359.943C211.965 359.211 213.228 358.142 214.163 356.735C215.099 355.328 215.567 353.703 215.567 351.86C215.567 350.045 215.102 348.463 214.174 347.112C213.245 345.762 211.986 344.735 210.396 344.032C211.522 343.37 212.408 342.508 213.056 341.446C213.703 340.384 214.026 339.199 214.026 337.89C214.026 335.611 213.171 333.744 211.462 332.288C209.752 330.831 207.597 330.103 204.994 330.103C202.349 330.103 200.168 330.828 198.452 332.277C196.735 333.726 195.877 335.597 195.877 337.89C195.877 339.199 196.207 340.384 196.869 341.446C197.53 342.508 198.437 343.37 199.591 344.031C197.973 344.721 196.703 345.741 195.781 347.091C194.861 348.441 194.4 350.031 194.4 351.861C194.4 353.703 194.867 355.328 195.803 356.735C196.739 358.142 198.005 359.208 199.602 359.932C201.199 360.657 202.996 361.019 204.994 361.019ZM204.994 342.533C203.699 342.533 202.609 342.114 201.723 341.277C200.836 340.44 200.393 339.403 200.393 338.165C200.393 336.955 200.836 335.938 201.723 335.115C202.609 334.292 203.699 333.881 204.993 333.881C206.274 333.881 207.357 334.292 208.243 335.115C209.13 335.938 209.573 336.955 209.573 338.165C209.573 339.389 209.127 340.423 208.233 341.267C207.34 342.111 206.261 342.533 204.994 342.533ZM204.994 356.63C203.348 356.63 201.983 356.144 200.9 355.173C199.816 354.203 199.275 352.908 199.275 351.291C199.275 349.701 199.816 348.428 200.9 347.471C201.983 346.514 203.348 346.036 204.994 346.036C206.612 346.036 207.962 346.514 209.046 347.471C210.129 348.428 210.671 349.701 210.671 351.291C210.671 352.894 210.129 354.185 209.046 355.163C207.962 356.141 206.612 356.63 204.994 356.63ZM226.731 360.618L236.46 347.745C238.232 345.354 239.119 342.927 239.119 340.465C239.119 338.495 238.64 336.719 237.684 335.136C236.749 333.574 235.402 332.3 233.79 331.454C232.15 330.582 230.332 330.146 228.335 330.146C226.379 330.146 224.582 330.578 222.943 331.443C221.303 332.309 219.995 333.547 219.017 335.157C218.039 336.768 217.557 338.58 217.572 340.591C217.586 342.561 218.054 344.309 218.975 345.835C219.897 347.362 221.082 348.519 222.531 349.307C223.967 350.092 225.579 350.498 227.216 350.489C227.877 350.489 228.51 350.425 229.116 350.299L221.096 360.618H226.731ZM228.461 346.858C226.661 346.858 225.187 346.293 224.04 345.16C222.893 344.028 222.313 342.54 222.299 340.697C222.285 338.882 222.862 337.408 224.029 336.276C225.197 335.143 226.674 334.577 228.461 334.577C230.276 334.577 231.739 335.126 232.851 336.223C233.962 337.321 234.518 338.798 234.518 340.655C234.518 342.413 233.952 343.887 232.819 345.075C231.687 346.265 230.234 346.858 228.461 346.858ZM246.125 361.04C246.941 361.04 247.641 360.752 248.225 360.175C248.507 359.906 248.731 359.581 248.881 359.221C249.032 358.862 249.107 358.475 249.101 358.085C249.101 357.27 248.809 356.57 248.225 355.985C247.953 355.703 247.627 355.481 247.266 355.33C246.904 355.18 246.516 355.105 246.125 355.11C245.323 355.11 244.627 355.402 244.035 355.986C243.445 356.57 243.15 357.27 243.15 358.086C243.15 358.887 243.445 359.58 244.036 360.164C244.626 360.748 245.322 361.04 246.125 361.04ZM260.349 360.618L274.509 334.388V330.525H253.597V334.894H269.045L254.82 360.617H260.35L260.349 360.618ZM294.727 360.618V354.73H298.864V350.362H294.727V330.525H287.32L275.734 350.341V354.731H289.874V360.618H294.727ZM289.874 350.362H280.461L289.874 333.649V350.362ZM306.968 343.335C308.797 343.335 310.351 342.688 311.632 341.393C312.912 340.085 313.552 338.516 313.552 336.687C313.552 334.873 312.912 333.318 311.632 332.024C310.352 330.729 308.797 330.082 306.968 330.082C305.153 330.082 303.598 330.729 302.304 332.024C301.009 333.318 300.362 334.873 300.362 336.687C300.362 338.53 301.006 340.099 302.293 341.393C303.581 342.688 305.139 343.335 306.968 343.335ZM309.289 360.639L325.202 330.483H320.981L305.111 360.639H309.289ZM306.968 339.979C306.068 339.979 305.293 339.659 304.646 339.019C304.333 338.718 304.085 338.356 303.918 337.954C303.751 337.553 303.668 337.122 303.676 336.687C303.676 335.773 303.999 335.003 304.646 334.377C304.951 334.073 305.313 333.834 305.712 333.672C306.111 333.511 306.538 333.431 306.968 333.437C307.882 333.437 308.656 333.754 309.289 334.387C309.922 335.02 310.239 335.787 310.239 336.687C310.239 337.602 309.926 338.379 309.299 339.019C308.674 339.659 307.896 339.979 306.968 339.979ZM323.577 360.977C325.391 360.977 326.936 360.33 328.209 359.035C329.482 357.741 330.119 356.186 330.119 354.372C330.119 352.542 329.479 350.985 328.199 349.697C326.918 348.41 325.377 347.767 323.577 347.767C321.747 347.767 320.186 348.41 318.891 349.697C317.597 350.985 316.95 352.543 316.95 354.372C316.95 356.2 317.594 357.758 318.88 359.046C320.168 360.333 321.733 360.977 323.577 360.977ZM323.577 357.642C322.647 357.642 321.867 357.322 321.234 356.682C320.927 356.381 320.685 356.022 320.522 355.625C320.358 355.227 320.278 354.801 320.284 354.372C320.284 353.443 320.601 352.662 321.234 352.029C321.867 351.396 322.648 351.079 323.577 351.079C324.463 351.079 325.233 351.403 325.887 352.05C326.542 352.697 326.869 353.471 326.869 354.372C326.869 355.272 326.545 356.042 325.898 356.682C325.251 357.322 324.477 357.642 323.577 357.642Z" fill="#343A40"/>
</g>
</g>
</g>
<defs>
<filter id="filter0_d" x="0" y="0" width="300" height="275" filterUnits="userSpaceOnUse" color-interpolation-filters="sRGB">
<feFlood flood-opacity="0" result="BackgroundImageFix"/>
<feColorMatrix in="SourceAlpha" type="matrix" values="0 0 0 0 0 0 0 0 0 0 0 0 0 0 0 0 0 0 127 0"/>
<feOffset dy="10"/>
<feGaussianBlur stdDeviation="10"/>
<feColorMatrix type="matrix" values="0 0 0 0 0.311766 0 0 0 0 0.336514 0 0 0 0 0.386011 0 0 0 0.03 0"/>
<feBlend mode="normal" in2="BackgroundImageFix" result="effect1_dropShadow"/>
<feBlend mode="normal" in="SourceGraphic" in2="effect1_dropShadow" result="shape"/>
</filter>
<filter id="filter1_d" x="280" y="0" width="300" height="275" filterUnits="userSpaceOnUse" color-interpolation-filters="sRGB">
<feFlood flood-opacity="0" result="BackgroundImageFix"/>
<feColorMatrix in="SourceAlpha" type="matrix" values="0 0 0 0 0 0 0 0 0 0 0 0 0 0 0 0 0 0 127 0"/>
<feOffset dy="10"/>
<feGaussianBlur stdDeviation="10"/>
<feColorMatrix type="matrix" values="0 0 0 0 0.311766 0 0 0 0 0.336514 0 0 0 0 0.386011 0 0 0 0.03 0"/>
<feBlend mode="normal" in2="BackgroundImageFix" result="effect1_dropShadow"/>
<feBlend mode="normal" in="SourceGraphic" in2="effect1_dropShadow" result="shape"/>
</filter>
<filter id="filter2_d" x="140" y="250" width="300" height="275" filterUnits="userSpaceOnUse" color-interpolation-filters="sRGB">
<feFlood flood-opacity="0" result="BackgroundImageFix"/>
<feColorMatrix in="SourceAlpha" type="matrix" values="0 0 0 0 0 0 0 0 0 0 0 0 0 0 0 0 0 0 127 0"/>
<feOffset dy="10"/>
<feGaussianBlur stdDeviation="10"/>
<feColorMatrix type="matrix" values="0 0 0 0 0.311766 0 0 0 0 0.336514 0 0 0 0 0.386011 0 0 0 0.03 0"/>
<feBlend mode="normal" in2="BackgroundImageFix" result="effect1_dropShadow"/>
<feBlend mode="normal" in="SourceGraphic" in2="effect1_dropShadow" result="shape"/>
</filter>
</defs>
</svg>
