<svg width="682" height="525" viewBox="0 0 682 525" fill="none" xmlns="http://www.w3.org/2000/svg">
<g clip-path="url(#clip0)">
<path d="M410.803 499.526L358 416.335L476.253 341L537.323 437.215L439.512 499.526H410.803Z" fill="#F0F0F0"/>
<path d="M472 523.478H602.795V497.101H472V523.478ZM601.096 521.777H473.699V498.802H601.096V521.777Z" fill="#3F3D56"/>
<path d="M488.137 518.798C483.446 518.798 479.644 514.989 479.644 510.29C479.644 505.59 483.446 501.781 488.137 501.781C492.828 501.781 496.63 505.59 496.63 510.29C496.63 514.989 492.828 518.798 488.137 518.798Z" fill="#FFB8B8"/>
<path d="M511.918 518.798C507.227 518.798 503.425 514.989 503.425 510.29C503.425 505.59 507.227 501.781 511.918 501.781C516.608 501.781 520.411 505.59 520.411 510.29C520.411 514.989 516.608 518.798 511.918 518.798Z" fill="#FFB8B8"/>
<path d="M535.699 518.798C531.008 518.798 527.205 514.989 527.205 510.29C527.205 505.59 531.008 501.781 535.699 501.781C540.389 501.781 544.192 505.59 544.192 510.29C544.192 514.989 540.389 518.798 535.699 518.798Z" fill="#FFB8B8"/>
<path d="M559.48 518.798C554.789 518.798 550.986 514.989 550.986 510.29C550.986 505.59 554.789 501.781 559.48 501.781C564.17 501.781 567.973 505.59 567.973 510.29C567.973 514.989 564.17 518.798 559.48 518.798Z" fill="#FFB8B8"/>
<path d="M583.26 518.798C578.57 518.798 574.767 514.989 574.767 510.29C574.767 505.59 578.57 501.781 583.26 501.781C587.951 501.781 591.753 505.59 591.753 510.29C591.753 514.989 587.951 518.798 583.26 518.798Z" fill="#FFB8B8"/>
<path d="M294.712 96.1507V31.483H262.438V0H420.411V158.266H285.37V142.792C285.37 139.907 284.803 137.051 283.701 134.386C282.599 131.721 280.984 129.3 278.948 127.26C276.912 125.22 274.495 123.602 271.835 122.499C269.175 121.395 266.324 120.827 263.445 120.827H262.438V96.1507H294.712Z" fill="#F0F0F0"/>
<path d="M119.753 408.428H225.068V430.551H119.753V408.428Z" fill="#F3603C"/>
<path d="M96.8219 299.514H251.397V319.935H96.8219V299.514Z" fill="#F0F0F0"/>
<path d="M21.2328 523.298H682V525H21.2328V523.298Z" fill="#3F3D56"/>
<path d="M70.3356 525H263.445C269.483 524.993 275.272 522.587 279.541 518.31C283.811 514.032 286.212 508.233 286.219 502.184V142.792C286.212 136.743 283.811 130.943 279.541 126.666C275.272 122.389 269.483 119.983 263.445 119.976H70.3356C64.2977 119.983 58.509 122.389 54.2396 126.666C49.9701 130.943 47.5686 136.743 47.5617 142.792V502.184C47.5686 508.233 49.9703 514.032 54.2397 518.31C58.5091 522.587 64.2977 524.993 70.3356 525ZM263.445 121.677C269.033 121.684 274.39 123.91 278.341 127.869C282.292 131.827 284.514 137.194 284.521 142.792V502.184C284.514 507.782 282.292 513.149 278.341 517.107C274.39 521.065 269.033 523.292 263.445 523.298H70.3356C64.7481 523.292 59.3912 521.065 55.4402 517.107C51.4892 513.149 49.2667 507.782 49.2603 502.184V142.792C49.2667 137.194 51.4892 131.827 55.4402 127.869C59.3912 123.91 64.7481 121.684 70.3356 121.677H263.445Z" fill="#3F3D56"/>
<path d="M189.822 136.994C190.83 136.994 191.815 136.694 192.653 136.133C193.491 135.572 194.144 134.775 194.53 133.842C194.916 132.909 195.017 131.883 194.82 130.892C194.623 129.902 194.138 128.992 193.425 128.278C192.713 127.564 191.805 127.078 190.816 126.881C189.828 126.684 188.803 126.785 187.872 127.171C186.941 127.558 186.145 128.212 185.585 129.052C185.025 129.891 184.726 130.878 184.726 131.888C184.728 133.242 185.265 134.539 186.22 135.497C187.176 136.454 188.471 136.992 189.822 136.994ZM189.822 128.485C190.494 128.485 191.151 128.684 191.709 129.058C192.268 129.432 192.703 129.964 192.961 130.586C193.218 131.208 193.285 131.892 193.154 132.552C193.023 133.212 192.699 133.819 192.224 134.295C191.749 134.771 191.144 135.095 190.485 135.226C189.826 135.358 189.143 135.29 188.522 135.033C187.901 134.775 187.371 134.339 186.997 133.779C186.624 133.219 186.425 132.561 186.425 131.888C186.426 130.986 186.784 130.121 187.421 129.483C188.058 128.844 188.921 128.486 189.822 128.485Z" fill="#3F3D56"/>
<path d="M139.712 131.037H177.082V132.739H139.712V131.037Z" fill="#3F3D56"/>
<path d="M62.8492 144.652V212.723C80.8692 212.722 98.1508 205.55 110.893 192.784C123.635 180.019 130.794 162.705 130.794 144.652H62.8492Z" fill="#F3603C"/>
<path d="M61.9999 502.026H271.781V143.801H61.9999V502.026ZM270.082 500.324H63.6986V145.502H270.082V500.324Z" fill="#3F3D56"/>
<path opacity="0.1" d="M112.11 208.468C99.4448 208.468 89.178 198.183 89.178 185.494C89.178 172.806 99.4448 162.52 112.11 162.52C124.774 162.52 135.041 172.806 135.041 185.494C135.041 198.183 124.774 208.468 112.11 208.468Z" fill="black"/>
<path d="M115.507 211.021C102.842 211.021 92.5754 200.735 92.5754 188.047C92.5754 175.359 102.842 165.073 115.507 165.073C128.172 165.073 138.438 175.359 138.438 188.047C138.438 200.735 128.172 211.021 115.507 211.021Z" fill="#F3603C"/>
<path d="M230.164 158.266H262.438V170.178H230.164V158.266Z" fill="#3F3D56"/>
<path d="M212.329 271.434H244.603V283.347H212.329V271.434Z" fill="#3F3D56"/>
<path d="M88.3289 315.681H244.603V293.558H88.3289V315.681ZM242.904 313.979H90.0275V295.259H242.904V313.979Z" fill="#3F3D56"/>
<path d="M96.8219 364.182H251.397V384.603H96.8219V364.182Z" fill="#F0F0F0"/>
<path d="M212.329 336.102H244.603V348.015H212.329V336.102Z" fill="#3F3D56"/>
<path d="M88.3289 380.348H244.603V358.225H88.3289V380.348ZM242.904 378.647H90.0275V359.927H242.904V378.647Z" fill="#3F3D56"/>
<path d="M112.959 425.446H219.973V401.621H112.959V425.446ZM218.274 423.744H114.658V403.323H218.274V423.744Z" fill="#3F3D56"/>
<path d="M92.5753 307.172C92.5755 308.924 93.1153 310.633 94.1209 312.065C95.1266 313.498 96.5492 314.586 98.1945 315.178C99.8398 315.771 101.628 315.841 103.314 315.378C105 314.915 106.503 313.942 107.617 312.592L107.625 312.583C108.437 311.597 109.017 310.439 109.321 309.198C109.625 307.956 109.645 306.661 109.381 305.41C109.117 304.159 108.575 302.984 107.795 301.972C107.014 300.959 106.017 300.136 104.876 299.564C103.734 298.991 102.479 298.684 101.203 298.664C99.9266 298.644 98.6624 298.913 97.5041 299.45C96.3459 299.988 95.3234 300.779 94.5128 301.767C93.7021 302.755 93.124 303.913 92.8216 305.155C92.8216 305.156 92.8214 305.157 92.821 305.158C92.8206 305.159 92.82 305.16 92.8192 305.161C92.8184 305.162 92.8175 305.163 92.8164 305.163C92.8154 305.163 92.8143 305.164 92.8132 305.164C92.6563 305.822 92.5764 306.495 92.5753 307.172Z" fill="#F3603C"/>
<path opacity="0.1" d="M92.5754 307.172C92.5755 308.924 93.1153 310.633 94.121 312.066C95.1266 313.498 96.5492 314.586 98.1945 315.178C99.8398 315.771 101.628 315.841 103.314 315.378C105 314.915 106.503 313.942 107.617 312.592L107.625 312.583C107.782 311.926 107.862 311.252 107.863 310.575C107.863 308.824 107.323 307.115 106.317 305.682C105.312 304.249 103.889 303.162 102.244 302.569C100.599 301.976 98.8108 301.906 97.1245 302.369C95.4382 302.832 93.9355 303.805 92.8217 305.155C92.8217 305.156 92.8215 305.157 92.8211 305.158C92.8207 305.16 92.82 305.16 92.8192 305.161C92.8184 305.162 92.8175 305.163 92.8165 305.163C92.8154 305.164 92.8143 305.164 92.8132 305.164C92.6563 305.822 92.5765 306.495 92.5754 307.172Z" fill="black"/>
<path d="M97.6712 320.786C92.9805 320.786 89.178 316.976 89.178 312.277C89.178 307.578 92.9805 303.768 97.6712 303.768C102.362 303.768 106.164 307.578 106.164 312.277C106.164 316.976 102.362 320.786 97.6712 320.786Z" fill="#F3603C"/>
<path d="M92.5753 371.84C92.5755 373.591 93.1153 375.3 94.1209 376.733C95.1266 378.166 96.5492 379.253 98.1945 379.846C99.8398 380.439 101.628 380.509 103.314 380.046C105 379.583 106.503 378.61 107.617 377.26L107.625 377.251C108.437 376.265 109.017 375.107 109.321 373.865C109.625 372.623 109.645 371.329 109.381 370.078C109.117 368.827 108.575 367.651 107.795 366.639C107.014 365.627 106.017 364.804 104.876 364.232C103.734 363.659 102.479 363.351 101.203 363.332C99.9266 363.312 98.6624 363.581 97.5041 364.118C96.3459 364.655 95.3234 365.447 94.5128 366.435C93.7021 367.423 93.124 368.581 92.8216 369.823C92.8216 369.824 92.8214 369.825 92.821 369.826C92.8206 369.827 92.82 369.828 92.8192 369.829C92.8184 369.83 92.8175 369.83 92.8164 369.831C92.8154 369.831 92.8143 369.831 92.8132 369.831C92.6563 370.489 92.5764 371.163 92.5753 371.84Z" fill="#F3603C"/>
<path opacity="0.1" d="M92.5754 371.84C92.5755 373.591 93.1153 375.3 94.121 376.733C95.1266 378.166 96.5492 379.253 98.1945 379.846C99.8398 380.439 101.628 380.509 103.314 380.046C105 379.583 106.503 378.61 107.617 377.26L107.625 377.251C107.782 376.593 107.862 375.919 107.863 375.243C107.863 373.491 107.323 371.782 106.317 370.349C105.312 368.916 103.889 367.829 102.244 367.236C100.599 366.644 98.8108 366.574 97.1245 367.037C95.4382 367.5 93.9355 368.473 92.8217 369.823C92.8217 369.824 92.8215 369.825 92.8211 369.826C92.8207 369.827 92.82 369.828 92.8192 369.829C92.8184 369.83 92.8175 369.83 92.8165 369.831C92.8154 369.831 92.8143 369.831 92.8132 369.831C92.6563 370.489 92.5765 371.163 92.5754 371.84Z" fill="black"/>
<path d="M97.6712 385.454C92.9805 385.454 89.178 381.644 89.178 376.945C89.178 372.246 92.9805 368.436 97.6712 368.436C102.362 368.436 106.164 372.246 106.164 376.945C106.164 381.644 102.362 385.454 97.6712 385.454Z" fill="#F3603C"/>
<path d="M240.356 40.8428H284.521V85.0891H240.356V40.8428Z" fill="#F0F0F0"/>
<path d="M112.11 73.1767C114.125 73.1767 116.096 72.5778 117.772 71.4559C119.448 70.3339 120.754 68.7392 121.526 66.8734C122.297 65.0077 122.499 62.9546 122.106 60.974C121.712 58.9933 120.742 57.1739 119.316 55.7459C117.891 54.3179 116.075 53.3454 114.098 52.9515C112.121 52.5575 110.072 52.7597 108.209 53.5325C106.347 54.3053 104.755 55.6141 103.635 57.2932C102.516 58.9724 101.918 60.9465 101.918 62.966C101.921 65.6731 102.996 68.2685 104.906 70.1827C106.817 72.0969 109.408 73.1736 112.11 73.1767ZM112.11 54.4571C113.789 54.4571 115.431 54.9561 116.828 55.8911C118.225 56.826 119.313 58.155 119.956 59.7098C120.599 61.2646 120.767 62.9754 120.44 64.626C120.112 66.2765 119.303 67.7927 118.115 68.9827C116.927 70.1727 115.414 70.9831 113.767 71.3114C112.119 71.6397 110.411 71.4712 108.859 70.8272C107.308 70.1832 105.981 69.0926 105.048 67.6933C104.115 66.294 103.616 64.6489 103.616 62.966C103.619 60.7101 104.515 58.5473 106.107 56.9521C107.699 55.3569 109.858 54.4596 112.11 54.4571Z" fill="#3F3D56"/>
<path d="M336.329 215.276H358.411V193.152H336.329V215.276ZM356.712 213.574H338.027V194.854H356.712V213.574Z" fill="#3F3D56"/>
<path d="M0 380.348H22.0822V358.225H0V380.348ZM20.3835 378.647H1.69863V359.927H20.3835V378.647Z" fill="#3F3D56"/>
<path d="M435.696 232.01L431.907 234.054L419.012 241.017L398.196 252.253L386.064 229.704C384.922 227.585 384.207 225.261 383.962 222.865C383.717 220.47 383.946 218.049 384.636 215.742C385.326 213.435 386.463 211.287 387.982 209.421C389.502 207.555 391.373 206.007 393.491 204.867C398.015 202.419 403.198 201.474 408.293 202.166C413.388 202.859 418.132 205.154 421.842 208.721L421.848 208.727C423.673 210.483 425.214 212.514 426.413 214.747L435.696 232.01Z" fill="#2F2E41"/>
<path d="M378.879 461.98L381.422 490.008L390.96 491.282L397.318 459.432L378.879 461.98Z" fill="#FFB8B8"/>
<path d="M393.503 491.282C393.503 491.282 381.423 484.912 378.879 490.008C378.879 490.008 380.787 505.296 373.157 507.207C365.527 509.118 362.348 522.495 373.157 523.769C383.966 525.043 390.96 521.221 394.775 521.221C398.59 521.221 394.775 507.844 394.775 507.844L393.503 491.282Z" fill="#2F2E41"/>
<path d="M455.814 461.98L453.27 490.008L443.733 491.282L437.375 459.432L455.814 461.98Z" fill="#FFB8B8"/>
<path d="M441.19 491.282C441.19 491.282 453.271 484.912 455.814 490.008C455.814 490.008 453.906 505.296 461.536 507.207C469.166 509.118 472.345 522.495 461.536 523.769C450.727 525.043 443.733 521.221 439.918 521.221C436.103 521.221 439.918 507.844 439.918 507.844L441.19 491.282Z" fill="#2F2E41"/>
<path d="M403.676 237.118C394.546 237.118 387.145 229.703 387.145 220.556C387.145 211.409 394.546 203.994 403.676 203.994C412.806 203.994 420.208 211.409 420.208 220.556C420.208 229.703 412.806 237.118 403.676 237.118Z" fill="#FFB8B8"/>
<path d="M456.45 253.043L443.097 274.064L427.202 272.79L401.133 274.701C401.133 274.701 398.672 269.771 396.663 264.974C395.563 262.579 394.717 260.075 394.139 257.502C393.503 253.043 402.405 248.584 402.405 248.584C402.405 248.584 402.754 248.521 403.339 248.381C404.115 248.196 405.311 247.89 406.62 247.444C409.577 246.438 413.131 244.731 413.85 242.214C415.121 237.755 405.584 231.385 405.584 231.385L417.029 220.556C417.029 220.556 427.195 234.704 439.543 237.927C440.259 238.117 440.985 238.266 441.718 238.373C441.756 238.38 441.788 238.386 441.826 238.392C455.178 240.303 456.45 253.043 456.45 253.043Z" fill="#FFB8B8"/>
<path d="M449.456 247.31L456.45 253.043C456.45 253.043 462.172 280.434 460.265 288.078C458.357 295.722 460.9 302.73 460.9 304.004C460.9 305.278 466.623 353.053 466.623 353.053C466.623 353.053 478.068 378.533 465.987 375.985C453.906 373.437 458.357 347.957 458.357 347.957L443.733 303.367V265.783L449.456 247.31Z" fill="#FFB8B8"/>
<path d="M399.226 252.406L394.139 256.228L391.596 309.737L372.521 355.601C372.521 355.601 358.533 377.896 367.435 378.533C376.336 379.17 382.058 355.601 382.058 355.601L399.226 311.648L401.769 268.968L399.226 252.406Z" fill="#FFB8B8"/>
<path d="M431.017 256.228C431.017 256.228 418.3 265.146 397.954 261.961C397.954 261.961 392.232 273.427 395.411 279.797C398.59 286.167 391.596 301.456 390.324 303.367C389.053 305.278 374.429 344.772 369.342 387.451C364.256 430.13 350.267 459.432 362.348 463.254C374.429 467.076 399.226 471.535 401.769 467.713C404.312 463.891 408.127 368.978 408.127 368.978L415.121 405.287C415.121 405.287 405.584 467.076 412.578 468.35C419.572 469.624 463.444 465.802 462.172 458.158C460.9 450.514 448.184 410.383 448.184 410.383C448.184 410.383 448.82 330.121 436.103 314.833C436.103 314.833 431.017 306.552 438.011 295.722C445.005 284.893 444.369 267.694 444.369 267.694C444.369 267.694 439.282 267.694 431.017 256.228Z" fill="#2F2E41"/>
<path d="M441.718 238.373L431.016 261.961L428.474 260.688L439.544 237.927L441.718 238.373Z" fill="#2F2E41"/>
<path d="M406.62 247.444L398.59 265.146L396.663 264.974L397.318 261.961L403.339 248.38C404.115 248.196 405.31 247.89 406.62 247.444Z" fill="#2F2E41"/>
<path d="M431.907 234.054C431.296 236.025 430.117 237.771 428.52 239.074C426.922 240.376 424.977 241.178 422.927 241.378C420.877 241.578 418.813 241.167 416.995 240.198C415.177 239.228 413.684 237.743 412.705 235.927C420.748 225.391 413.85 218.773 400.783 213.766C399.799 211.936 399.381 209.854 399.581 207.785C399.782 205.716 400.592 203.753 401.909 202.147C405.51 201.685 409.169 202.036 412.618 203.174C416.067 204.311 419.218 206.206 421.842 208.721L421.848 208.727L431.131 225.977C431.792 227.203 432.202 228.55 432.335 229.937C432.468 231.324 432.323 232.724 431.907 234.054Z" fill="#2F2E41"/>
<path d="M413.532 226.289C412.303 226.289 411.306 224.578 411.306 222.467C411.306 220.356 412.303 218.645 413.532 218.645C414.761 218.645 415.757 220.356 415.757 222.467C415.757 224.578 414.761 226.289 413.532 226.289Z" fill="#FFB8B8"/>
<path d="M406.9 216.231L387.787 224.907L384.284 217.161C384.887 214.33 386.151 211.682 387.972 209.434L401.127 203.465L406.9 216.231Z" fill="#2F2E41"/>
<path d="M360.959 387.156C356.268 387.156 352.466 383.346 352.466 378.647C352.466 373.947 356.268 370.138 360.959 370.138C365.65 370.138 369.452 373.947 369.452 378.647C369.452 383.346 365.65 387.156 360.959 387.156Z" fill="#F3603C"/>
<path d="M541.551 466.122C538.485 466.122 536 463.632 536 460.561C536 457.49 538.485 455 541.551 455C544.616 455 547.101 457.49 547.101 460.561C547.101 463.632 544.616 466.122 541.551 466.122Z" fill="#FF6584"/>
<path d="M499.583 461.16H501.281V524.476H499.583V461.16Z" fill="#3F3D56"/>
<path d="M500.432 470.113C495.496 470.113 491.495 466.105 491.495 461.16C491.495 456.215 495.496 452.206 500.432 452.206C505.368 452.206 509.369 456.215 509.369 461.16C509.369 466.105 505.368 470.113 500.432 470.113Z" fill="#3F3D56"/>
<path d="M500.432 500.183C500.432 500.183 501.709 472.672 527.882 475.869L500.432 500.183Z" fill="#3F3D56"/>
</g>
<defs>
<clipPath id="clip0">
<rect width="682" height="525" fill="white" transform="matrix(-1 0 0 1 682 0)"/>
</clipPath>
</defs>
</svg>
