<svg width="146" height="24" viewBox="0 0 146 24" fill="none" xmlns="http://www.w3.org/2000/svg">
<path d="M40.014 16.6278V8.46083C40.014 6.90083 40.38 5.67123 41.112 4.77104C41.845 3.87085 42.762 3.42075 43.862 3.42075C46.02 3.42075 47.099 4.98075 47.099 8.10075V16.6278H50.881V7.1511C50.881 4.76214 50.381 2.97659 49.378 1.7925C48.376 0.608399 46.945 0.0168451 45.084 0.0168451C43.862 0.0168451 42.744 0.248323 41.732 0.712267C40.7256 1.17066 39.8471 1.86424 39.172 2.73324H39.106C38.126 0.921982 36.486 0.0168451 34.184 0.0168451C33.215 0.0168451 32.282 0.231506 31.385 0.662806C30.4733 1.10526 29.6703 1.73928 29.032 2.52056H28.982V0.262172H25.2V16.611H28.982V8.46083C28.982 6.90083 29.354 5.67123 30.097 4.77104C30.84 3.87085 31.79 3.42075 32.946 3.42075C35.136 3.42075 36.232 4.98075 36.232 8.10075V16.6278H40.014ZM61.115 16.8732C63.361 16.8732 65.112 16.0551 66.367 14.4179H66.417V16.611H70.033V0.262172H66.251V2.22577H66.185C64.93 0.752825 63.23 0.0168451 61.082 0.0168451C60.0202 0.00938599 58.9682 0.217557 57.991 0.628477C57.0138 1.0394 56.1323 1.64432 55.401 2.40581C54.696 3.14773 54.141 4.04792 53.733 5.10638C53.3204 6.1941 53.1133 7.34755 53.122 8.5093C53.122 9.75374 53.325 10.8993 53.732 11.9468C54.14 12.9944 54.696 13.8778 55.401 14.598C56.1181 15.3264 56.9817 15.898 57.936 16.2757C58.9462 16.6787 60.0257 16.8817 61.115 16.8732ZM61.71 13.4693C60.311 13.4693 59.172 13.0083 58.291 12.0863C57.411 11.1644 56.97 9.9773 56.97 8.52612C56.97 6.98788 57.424 5.75234 58.332 4.81951C59.241 3.88668 60.372 3.42075 61.726 3.42075C63.069 3.42075 64.184 3.90844 65.071 4.8848C65.957 5.86215 66.401 7.07592 66.401 8.52612C66.401 9.9773 65.946 11.1644 65.038 12.0863C64.129 13.0083 63.02 13.4693 61.71 13.4693ZM88.822 16.6278V6.98788C88.822 4.62068 88.286 2.86679 87.212 1.72622C86.14 0.586636 84.655 0.0168451 82.762 0.0168451C81.7089 0.0112017 80.6669 0.228765 79.706 0.654892C78.75 1.07916 77.9033 1.7115 77.229 2.50473H77.179V0.261182H73.397V16.61H77.179V8.39554C77.179 6.82466 77.567 5.60297 78.343 4.72949C79.12 3.857 80.157 3.42075 81.456 3.42075C82.051 3.42075 82.56 3.49692 82.984 3.64926C83.408 3.80259 83.78 4.05089 84.099 4.39415C84.419 4.73839 84.655 5.20432 84.809 5.79389C84.963 6.38248 85.04 7.10263 85.04 7.95336V16.6278H88.822ZM99.04 16.8732C101.286 16.8732 103.036 16.0551 104.292 14.4179H104.342V16.611H107.958V0.262172H104.176V2.22577H104.11C102.855 0.752825 101.154 0.0168451 99.007 0.0168451C97.945 0.00925034 96.8928 0.217356 95.9155 0.628279C94.9381 1.0392 94.0564 1.6442 93.325 2.40581C92.621 3.14773 92.065 4.04792 91.657 5.10638C91.2447 6.19417 91.0379 7.34761 91.047 8.5093C91.047 9.75374 91.25 10.8993 91.657 11.9468C92.065 12.9944 92.621 13.8778 93.325 14.598C94.0423 15.3265 94.9063 15.8981 95.861 16.2757C96.8709 16.6786 97.951 16.8816 99.04 16.8732ZM99.634 13.4693C98.236 13.4693 97.096 13.0083 96.216 12.0863C95.335 11.1644 94.894 9.9773 94.894 8.52612C94.894 6.98788 95.349 5.75234 96.257 4.81951C97.165 3.88668 98.297 3.42075 99.651 3.42075C100.994 3.42075 102.109 3.90844 102.995 4.8848C103.881 5.86215 104.325 7.07592 104.325 8.52612C104.325 9.9773 103.87 11.1644 102.962 12.0863C102.054 13.0083 100.944 13.4693 99.634 13.4693ZM118.704 23.4851C119.904 23.4851 120.978 23.3466 121.924 23.0677C122.871 22.7897 123.667 22.4019 124.311 21.9053C124.959 21.4049 125.503 20.7856 125.913 20.0812C126.342 19.348 126.651 18.5524 126.829 17.7239C127.017 16.8732 127.11 15.9403 127.11 14.9254V0.262172H123.328V1.98045H123.262C122.584 1.33943 121.784 0.838369 120.909 0.506509C120.026 0.169218 119.088 -0.00253699 118.142 2.83168e-05C116.634 2.83168e-05 115.28 0.354169 114.08 1.06344C112.88 1.77271 111.946 2.75797 111.28 4.01824C110.614 5.27752 110.281 6.69408 110.281 8.26496C110.281 9.85761 110.631 11.2702 111.33 12.5038C112.029 13.7363 112.99 14.683 114.212 15.3428C115.434 16.0026 116.81 16.333 118.341 16.333C120.388 16.333 122.057 15.6673 123.345 14.3368H123.411V16.0709C123.411 17.2283 122.981 18.1878 122.123 18.9515C121.263 19.7152 120.053 20.097 118.489 20.097C117.421 20.097 116.483 19.9665 115.673 19.7043C114.864 19.4422 113.931 19.0336 112.874 18.4777L111.982 21.7827C112.907 22.3287 113.948 22.7481 115.104 23.0429C116.26 23.3377 117.46 23.4851 118.704 23.4851ZM118.836 12.8807C117.471 12.8807 116.345 12.4513 115.459 11.5947C114.572 10.739 114.129 9.59052 114.129 8.15022C114.129 6.76531 114.564 5.63562 115.434 4.76214C116.304 3.88964 117.438 3.4534 118.836 3.4534C120.168 3.4534 121.278 3.88371 122.164 4.74631C123.05 5.60792 123.494 6.72673 123.494 8.10075C123.494 9.48665 123.061 10.6292 122.197 11.5294C121.333 12.4296 120.212 12.8807 118.836 12.8807ZM137.922 16.8732C139.464 16.8732 140.821 16.5952 141.993 16.0383C143.166 15.4823 144.126 14.7295 144.875 13.7799L142.233 11.5383C141.198 12.8253 139.827 13.4693 138.12 13.4693C136.91 13.4693 135.883 13.1359 135.04 12.4701C134.198 11.8054 133.656 10.8943 133.413 9.73791H145.437C145.503 9.34519 145.536 8.84762 145.536 8.24815C145.536 6.66638 145.211 5.25378 144.561 4.00934C143.93 2.7856 142.956 1.76837 141.754 1.08026C140.532 0.370986 139.122 0.0168451 137.526 0.0168451C136.433 0.00874321 135.349 0.217281 134.338 0.630162C133.348 1.0397 132.494 1.60949 131.778 2.34052C131.063 3.07156 130.501 3.96087 130.094 5.00746C129.687 6.05604 129.483 7.19562 129.483 8.42819C129.483 10.098 129.852 11.5789 130.589 12.8718C131.327 14.1647 132.335 15.1549 133.612 15.8424C134.889 16.5299 136.326 16.8732 137.922 16.8732ZM141.737 6.70991H133.48C133.744 5.66233 134.256 4.85215 135.015 4.2794C135.775 3.70664 136.678 3.42075 137.724 3.42075C138.781 3.42075 139.654 3.71554 140.342 4.30413C141.03 4.8937 141.495 5.69497 141.737 6.70991Z" fill="#FAFAFA"/>
<path fill-rule="evenodd" clip-rule="evenodd" d="M2.786 10.1752C4.324 10.1752 5.571 11.4404 5.571 13.0014C5.571 14.5614 4.324 15.8276 2.786 15.8276C1.247 15.8276 0 14.5614 0 13.0014C0 11.4404 1.247 10.1752 2.786 10.1752ZM2.786 0C4.324 0 5.57 1.26621 5.57 2.82622C5.57 4.38722 4.323 5.65244 2.785 5.65244C1.247 5.65244 0 4.38722 0 2.82622C0 1.26621 1.247 0 2.786 0ZM12.814 0C14.353 0 15.6 1.26621 15.6 2.82622C15.6 4.38722 14.353 5.65244 12.814 5.65244C11.276 5.65244 10.029 4.38722 10.029 2.82622C10.029 1.26621 11.276 0 12.814 0Z" fill="#F3603C"/>
<path opacity="0.5" d="M12.814 15.9402C14.3526 15.9402 15.6 14.6749 15.6 13.114C15.6 11.5532 14.3526 10.2878 12.814 10.2878C11.2753 10.2878 10.028 11.5532 10.028 13.114C10.028 14.6749 11.2753 15.9402 12.814 15.9402Z" fill="#F3603C"/>
</svg>
